<svg xmlns="http://www.w3.org/2000/svg" viewBox="0 0 400 300" width="400" height="300">
  <!-- Background -->
  <rect width="400" height="300" fill="#f8fafc"/>
  
  <!-- Hospital/Care facility background -->
  <rect x="0" y="200" width="400" height="100" fill="#e2e8f0"/>
  <rect x="50" y="100" width="300" height="100" fill="#ffffff" stroke="#cbd5e1" stroke-width="2"/>
  
  <!-- Medical Cross Symbol -->
  <rect x="190" y="110" width="20" height="4" fill="#dc2626"/>
  <rect x="198" y="102" width="4" height="20" fill="#dc2626"/>
  
  <!-- Lead Nurse -->
  <g transform="translate(120, 140)">
    <!-- Body -->
    <ellipse cx="0" cy="30" rx="18" ry="30" fill="#1e40af"/>
    <!-- Head -->
    <circle cx="0" cy="0" r="15" fill="#fbbf24"/>
    <!-- Arms -->
    <ellipse cx="-22" cy="25" rx="7" ry="18" fill="#1e40af"/>
    <ellipse cx="22" cy="25" rx="7" ry="18" fill="#1e40af"/>
    <!-- Nurse cap -->
    <rect x="-12" y="-12" width="24" height="8" fill="#ffffff"/>
    <rect x="-10" y="-15" width="20" height="5" fill="#1e40af"/>
    <!-- Red cross on cap -->
    <rect x="-2" y="-12" width="4" height="1" fill="#dc2626"/>
    <rect x="-1" y="-13" width="2" height="3" fill="#dc2626"/>
    <!-- Stethoscope -->
    <path d="M -10,5 Q 0,-2 10,5" stroke="#374151" stroke-width="2" fill="none"/>
    <circle cx="10" cy="7" r="4" fill="#374151"/>
    <!-- Badge -->
    <rect x="-10" y="15" width="20" height="10" fill="#ffffff" stroke="#1e40af"/>
    <text x="0" y="22" text-anchor="middle" font-family="Arial, sans-serif" font-size="6" fill="#1e40af">RN</text>
  </g>
  
  <!-- Healthcare Assistant 1 -->
  <g transform="translate(200, 140)">
    <!-- Body -->
    <ellipse cx="0" cy="30" rx="16" ry="28" fill="#059669"/>
    <!-- Head -->
    <circle cx="0" cy="0" r="14" fill="#f59e0b"/>
    <!-- Arms -->
    <ellipse cx="-20" cy="25" rx="6" ry="16" fill="#059669"/>
    <ellipse cx="20" cy="25" rx="6" ry="16" fill="#059669"/>
    <!-- Hair -->
    <path d="M -10,-10 Q 0,-16 10,-10" fill="#92400e"/>
    <!-- ID Badge -->
    <rect x="15" y="10" width="8" height="12" fill="#ffffff" stroke="#059669"/>
    <!-- Clipboard -->
    <rect x="-25" y="20" width="8" height="12" fill="#ffffff" stroke="#374151"/>
    <rect x="-24" y="21" width="6" height="10" fill="#f3f4f6"/>
  </g>
  
  <!-- Support Worker -->
  <g transform="translate(280, 140)">
    <!-- Body -->
    <ellipse cx="0" cy="30" rx="16" ry="28" fill="#7c3aed"/>
    <!-- Head -->
    <circle cx="0" cy="0" r="14" fill="#92400e"/>
    <!-- Arms -->
    <ellipse cx="-20" cy="25" rx="6" ry="16" fill="#7c3aed"/>
    <ellipse cx="20" cy="25" rx="6" ry="16" fill="#7c3aed"/>
    <!-- Hair in bun -->
    <circle cx="0" cy="-8" r="6" fill="#451a03"/>
    <!-- Name tag -->
    <rect x="-8" y="15" width="16" height="8" fill="#ffffff" stroke="#7c3aed"/>
    <text x="0" y="21" text-anchor="middle" font-family="Arial, sans-serif" font-size="5" fill="#7c3aed">SARAH</text>
  </g>
  
  <!-- Medical Equipment Cart -->
  <g transform="translate(50, 160)">
    <!-- Cart body -->
    <rect x="0" y="0" width="30" height="40" fill="#e5e7eb" stroke="#6b7280"/>
    <!-- Shelves -->
    <rect x="2" y="5" width="26" height="2" fill="#6b7280"/>
    <rect x="2" y="15" width="26" height="2" fill="#6b7280"/>
    <rect x="2" y="25" width="26" height="2" fill="#6b7280"/>
    <!-- Wheels -->
    <circle cx="5" cy="45" r="3" fill="#374151"/>
    <circle cx="25" cy="45" r="3" fill="#374151"/>
    <!-- Medical supplies -->
    <rect x="5" y="8" width="6" height="4" fill="#ef4444"/>
    <rect x="15" y="8" width="8" height="4" fill="#3b82f6"/>
    <circle cx="10" cy="20" r="3" fill="#ffffff" stroke="#6b7280"/>
  </g>
  
  <!-- Patient in wheelchair -->
  <g transform="translate(340, 160)">
    <!-- Wheelchair -->
    <circle cx="-10" cy="25" r="12" fill="#6b7280" stroke="#374151" stroke-width="2"/>
    <circle cx="10" cy="25" r="12" fill="#6b7280" stroke="#374151" stroke-width="2"/>
    <rect x="-15" y="5" width="30" height="20" fill="#7c2d12"/>
    <!-- Patient -->
    <circle cx="0" cy="-5" r="10" fill="#f59e0b"/>
    <ellipse cx="0" cy="10" rx="12" ry="15" fill="#3b82f6"/>
    <!-- Patient's hands -->
    <circle cx="-12" cy="15" r="3" fill="#f59e0b"/>
    <circle cx="12" cy="15" r="3" fill="#f59e0b"/>
  </g>
  
  <!-- Floor markings -->
  <rect x="0" y="220" width="400" height="4" fill="#cbd5e1"/>
  <rect x="100" y="224" width="200" height="2" fill="#3b82f6"/>
  
  <!-- Medical information board -->
  <rect x="20" y="40" width="60" height="40" fill="#fef3c7" stroke="#f59e0b" stroke-width="2"/>
  <text x="50" y="55" text-anchor="middle" font-family="Arial, sans-serif" font-size="8" font-weight="bold" fill="#92400e">
    Shift Schedule
  </text>
  <text x="25" y="68" font-family="Arial, sans-serif" font-size="6" fill="#374151">
    Day Shift: 7AM-7PM
  </text>
  <text x="25" y="75" font-family="Arial, sans-serif" font-size="6" fill="#374151">
    Night Shift: 7PM-7AM
  </text>
  
  <!-- JoyJoy Care branding -->
  <text x="200" y="25" text-anchor="middle" font-family="Arial, sans-serif" font-size="16" font-weight="bold" fill="#1e40af">
    Professional Care Team
  </text>
  
  <!-- Care quality indicators -->
  <g transform="translate(320, 40)">
    <circle cx="0" cy="0" r="15" fill="#22c55e"/>
    <path d="M -8,0 L -3,5 L 8,-6" stroke="#ffffff" stroke-width="3" fill="none"/>
    <text x="0" y="25" text-anchor="middle" font-family="Arial, sans-serif" font-size="8" fill="#374151">
      CQC Rated
    </text>
  </g>
</svg>